<?xml version="1.0" encoding="utf-8"?>
<!-- Generator: Adobe Illustrator 17.1.0, SVG Export Plug-In . SVG Version: 6.00 Build 0)  -->
<!DOCTYPE svg PUBLIC "-//W3C//DTD SVG 1.1//EN" "http://www.w3.org/Graphics/SVG/1.1/DTD/svg11.dtd">
<svg version="1.1" id="scale" xmlns="http://www.w3.org/2000/svg" xmlns:xlink="http://www.w3.org/1999/xlink" x="0px" y="0px"
	 viewBox="0 0 100 99.9965" enable-background="new 0 0 100 99.9965" xml:space="preserve">
<path id="scale-label" fill="#324058" d="M49.999,99.9965C77.6094,99.9965,100,77.6137,100,50c0-27.6094-22.3906-50-50.001-50
	C22.3877,0,0,22.3906,0,50C0,77.6137,22.3877,99.9965,49.999,99.9965z"/>
<g id="scale-scale">
	<g>
		<polygon fill="#FFFFFF" points="42.5547,59.7172 33.1201,36.5776 23.6855,59.7172 21.9224,58.9995 33.1201,31.5356 
			44.3174,58.9995 42.5547,59.7172 		"/>
	</g>
	<g>
		<polygon fill="#FFFFFF" points="57.4443,59.7172 55.6826,58.9995 66.8789,31.5356 78.0742,58.9995 76.3125,59.7172 
			66.8789,36.5776 57.4443,59.7172 		"/>
	</g>
	<g>
		<path fill="#EB8619" d="M64.9873,33.1328H55.626c-0.5254,0-0.9492-0.4248-0.9492-0.9507c0-0.5244,0.4238-0.9512,0.9492-0.9512
			h9.3613c0.5234,0,0.9502,0.4268,0.9502,0.9512C65.9375,32.708,65.5107,33.1328,64.9873,33.1328L64.9873,33.1328z"/>
	</g>
	<g>
		<path fill="#EB8619" d="M44.3574,33.1328h-9.3613c-0.5259,0-0.9517-0.4248-0.9517-0.9507c0-0.5244,0.4258-0.9512,0.9517-0.9512
			h9.3613c0.5249,0,0.9512,0.4268,0.9512,0.9512C45.3086,32.708,44.8823,33.1328,44.3574,33.1328L44.3574,33.1328z"/>
	</g>
	<g>
		<path fill="#EB8619" d="M49.999,28.4448c-0.5254,0-0.9511-0.4248-0.9511-0.9517v-2.8134c0-0.525,0.4257-0.9507,0.9511-0.9507
			c0.5249,0,0.9517,0.4257,0.9517,0.9507v2.8134C50.9507,28.02,50.5239,28.4448,49.999,28.4448L49.999,28.4448z"/>
	</g>
	<g>
		<path fill="#EB8619" d="M49.999,76.27c-0.5254,0-0.9511-0.4258-0.9511-0.9512V36.8706c0-0.5249,0.4257-0.9512,0.9511-0.9512
			c0.5249,0,0.9517,0.4263,0.9517,0.9512v38.4482C50.9507,75.8442,50.5239,76.27,49.999,76.27L49.999,76.27z"/>
	</g>
	<g>
		<path fill="#EB8619" d="M58.4395,76.2622H41.5586c-0.5244,0-0.9502-0.4258-0.9502-0.9522c0-0.5254,0.4258-0.9511,0.9502-0.9511
			h16.8809c0.5253,0,0.9521,0.4257,0.9521,0.9511C59.3916,75.8364,58.9648,76.2622,58.4395,76.2622L58.4395,76.2622z"/>
	</g>
	<g>
		<path fill="#EB8619" d="M49.9902,37.8217c-3.1098,0-5.6406-2.5297-5.6406-5.6396c0-3.1104,2.5308-5.6397,5.6406-5.6397
			c3.1104,0,5.6416,2.5293,5.6416,5.6397C55.6318,35.292,53.1006,37.8217,49.9902,37.8217L49.9902,37.8217z M49.9902,28.4448
			c-2.061,0-3.7378,1.6767-3.7378,3.7373c0,2.061,1.6768,3.7373,3.7378,3.7373c2.0606,0,3.7393-1.6763,3.7393-3.7373
			C53.7295,30.1215,52.0508,28.4448,49.9902,28.4448L49.9902,28.4448z"/>
	</g>
	<g>
		<path fill="#43C7D2" d="M33.1123,35.0073c-1.5596,0-2.8276-1.2671-2.8276-2.8252c0-1.5591,1.268-2.8281,2.8276-2.8281
			c1.5586,0,2.8262,1.269,2.8262,2.8281C35.9385,33.7402,34.6709,35.0073,33.1123,35.0073L33.1123,35.0073z M33.1123,31.2568
			c-0.5102,0-0.9248,0.416-0.9248,0.9253c0,0.5083,0.4146,0.9228,0.9248,0.9228c0.5088,0,0.9233-0.4145,0.9233-0.9228
			C34.0356,31.6728,33.6211,31.2568,33.1123,31.2568L33.1123,31.2568z"/>
	</g>
	<g>
		<path fill="#43C7D2" d="M66.8701,35.0073c-1.5596,0-2.8271-1.2671-2.8271-2.8252c0-1.5591,1.2675-2.8281,2.8271-2.8281
			c1.5576,0,2.8262,1.269,2.8262,2.8281C69.6963,33.7402,68.4277,35.0073,66.8701,35.0073L66.8701,35.0073z M66.8701,31.2568
			c-0.5097,0-0.9248,0.416-0.9248,0.9253c0,0.5083,0.4151,0.9228,0.9248,0.9228c0.5098,0,0.9229-0.4145,0.9229-0.9228
			C67.793,31.6728,67.3799,31.2568,66.8701,31.2568L66.8701,31.2568z"/>
	</g>
	<g>
		<path fill="#43C7D2" d="M77.1777,60.3286H56.5645c-0.5264,0-0.9522-0.4268-0.9522-0.9522c0-0.5244,0.4258-0.9502,0.9522-0.9502
			h20.6132c0.5244,0,0.9502,0.4258,0.9502,0.9502C78.1279,59.9018,77.7021,60.3286,77.1777,60.3286L77.1777,60.3286z"/>
	</g>
	<g>
		<path fill="#43C7D2" d="M66.8789,70.644c-6.2119,0-11.2666-5.0557-11.2666-11.2676c0-0.5244,0.4258-0.9502,0.9522-0.9502
			c0.5244,0,0.9501,0.4258,0.9501,0.9502c0,5.1641,4.2012,9.3643,9.3643,9.3643c5.1621,0,9.3633-4.2002,9.3633-9.3643
			c0-0.5244,0.4258-0.9502,0.9521-0.9502c0.5235,0,0.9502,0.4258,0.9502,0.9502C78.1445,65.5883,73.0928,70.644,66.8789,70.644
			L66.8789,70.644z"/>
	</g>
	<g>
		<path fill="#43C7D2" d="M43.4189,60.3286H22.8042c-0.5254,0-0.9512-0.4268-0.9512-0.9522c0-0.5244,0.4258-0.9502,0.9512-0.9502
			h20.6147c0.5249,0,0.9512,0.4258,0.9512,0.9502C44.3701,59.9018,43.9438,60.3286,43.4189,60.3286L43.4189,60.3286z"/>
	</g>
	<g>
		<path fill="#43C7D2" d="M33.1201,70.644c-6.2134,0-11.2671-5.0557-11.2671-11.2676c0-0.5244,0.4258-0.9502,0.9512-0.9502
			c0.5249,0,0.9517,0.4258,0.9517,0.9502c0,5.1641,4.1997,9.3643,9.3642,9.3643c5.1636,0,9.3643-4.2002,9.3643-9.3643
			c0-0.5244,0.4262-0.9502,0.9511-0.9502c0.5259,0,0.9517,0.4258,0.9517,0.9502C44.3872,65.5883,39.3335,70.644,33.1201,70.644
			L33.1201,70.644z"/>
	</g>
</g>
</svg>
